<svg width="87" height="32" viewBox="0 0 87 32" fill="none" xmlns="http://www.w3.org/2000/svg">
<g clip-path="url(#clip0_6_465)">
<path d="M68.198 11.5287H63.7462L69.7474 6.19394L69.8649 6.08949L69.7505 5.98157L63.7296 0.294678H68.1954L73.9835 6.08316L68.198 11.5287Z" fill="#3CFA60" stroke="black" stroke-width="0.560832"/>
<path d="M79.5011 11.5287H75.0492L81.0504 6.19394L81.1679 6.08949L81.0535 5.98157L75.0327 0.294678H79.4987L85.2868 6.08316L79.5011 11.5287Z" fill="#3CFA60" stroke="black" stroke-width="0.560832"/>
<path d="M8.35644 7.2251L8.84868 9.10045C8.06734 9.40518 7.50479 9.88965 7.16099 10.5538C6.8172 11.2102 6.59062 11.9291 6.48122 12.7105L6.15306 15.1015C6.03586 16.1252 5.71161 16.9456 5.1803 17.5629C4.6568 18.1724 3.99266 18.6217 3.18788 18.9108C2.3831 19.1921 1.50409 19.3445 0.550855 19.368L0.703216 17.5864C1.4533 17.5551 2.02759 17.3129 2.42606 16.8597C2.82455 16.3986 3.07459 15.8126 3.17616 15.1015L3.50432 12.7105C3.63715 11.7337 3.90671 10.8859 4.31301 10.167C4.71931 9.44815 5.25844 8.84648 5.93039 8.36203C6.61014 7.87756 7.41883 7.49859 8.35644 7.2251ZM5.81317 28.3812L5.1217 30.2215C4.27784 29.9403 3.58246 29.5377 3.03551 29.0143C2.49638 28.4985 2.10963 27.8813 1.87523 27.1625C1.64864 26.4434 1.58222 25.6425 1.67598 24.7596L2.00415 22.3568C2.05884 21.9192 2.05103 21.5246 1.98071 21.1729C1.9182 20.8213 1.76584 20.5361 1.52362 20.3173C1.28141 20.0986 0.918083 19.9696 0.433655 19.9305L0.562575 18.1372C1.41424 18.1685 2.18776 18.3443 2.88317 18.6647C3.57855 18.9773 4.11768 19.4422 4.50053 20.0595C4.88338 20.6768 5.03184 21.4464 4.94588 22.3685L4.62945 24.7714C4.57476 25.2322 4.5474 25.6972 4.5474 26.1662C4.55522 26.6349 4.64899 27.0646 4.82869 27.4555C5.01621 27.8461 5.34437 28.1547 5.81317 28.3812ZM15.494 23.0249L18.0958 7.97524H21.4126L18.2951 25.9784H15.3299L15.494 23.0249ZM8.2744 19.8837L8.29785 19.6258C8.39941 18.8522 8.57913 18.0708 8.83698 17.2816C9.10263 16.4924 9.46203 15.7735 9.91521 15.125C10.3762 14.4764 10.9427 13.9607 11.6146 13.5778C12.2866 13.1949 13.0836 13.0191 14.0055 13.0504C14.7947 13.0816 15.4471 13.3043 15.9628 13.7185C16.4785 14.1248 16.8769 14.6522 17.1582 15.3008C17.4473 15.9415 17.6427 16.6253 17.7442 17.3519C17.8536 18.0708 17.8966 18.7546 17.8732 19.4031L17.8146 19.9657C17.6895 20.6611 17.4786 21.38 17.1817 22.1224C16.8926 22.8569 16.5136 23.5406 16.0448 24.1736C15.5838 24.7987 15.033 25.3027 14.3923 25.6854C13.7594 26.0683 13.0367 26.2482 12.2241 26.2247C11.3724 26.2012 10.6731 25.9943 10.1262 25.6034C9.58704 25.2049 9.16904 24.6932 8.87212 24.068C8.57523 23.4429 8.3838 22.7631 8.29785 22.0286C8.21189 21.2941 8.20408 20.5791 8.2744 19.8837ZM11.6146 19.6141L11.5912 19.8602C11.5599 20.1962 11.5404 20.5752 11.5326 20.9971C11.5326 21.4113 11.5756 21.8137 11.6615 22.2044C11.7553 22.5873 11.9233 22.9076 12.1655 23.1655C12.4155 23.4156 12.7749 23.5523 13.2437 23.5757C13.8375 23.5992 14.3493 23.4624 14.7791 23.1655C15.2088 22.8608 15.5526 22.4701 15.8104 21.9934C16.0761 21.5168 16.2519 21.0167 16.3378 20.4932L16.5605 18.9343C16.5996 18.5748 16.5996 18.2115 16.5605 17.8442C16.5215 17.477 16.4316 17.1331 16.2909 16.8128C16.1581 16.4924 15.955 16.2306 15.6815 16.0275C15.4158 15.8243 15.0682 15.7188 14.6384 15.711C14.1149 15.6876 13.6696 15.8009 13.3023 16.0509C12.9429 16.2932 12.6499 16.6135 12.4233 17.012C12.1967 17.4027 12.017 17.8286 11.8842 18.2896C11.7592 18.7506 11.6693 19.1921 11.6146 19.6141ZM26.7687 26.2129C25.9015 26.1973 25.1201 26.0333 24.4248 25.7207C23.7293 25.4003 23.1472 24.9627 22.6784 24.4079C22.2174 23.8531 21.8775 23.2085 21.6588 22.474C21.44 21.7395 21.3619 20.9503 21.4244 20.1064L21.4712 19.6258C21.565 18.7428 21.7799 17.9028 22.1158 17.1058C22.4518 16.3088 22.9011 15.6055 23.4637 14.9961C24.0263 14.3787 24.6904 13.8982 25.456 13.5544C26.2297 13.2028 27.089 13.0387 28.0346 13.0621C28.9174 13.0777 29.6715 13.2575 30.2965 13.6013C30.9216 13.9451 31.4256 14.4061 31.8085 14.9843C32.1911 15.5626 32.4529 16.2228 32.5937 16.9652C32.7342 17.6997 32.7615 18.4693 32.6757 19.2742L32.4882 20.6807H22.6901L23.0534 18.4303L29.5231 18.442L29.5816 18.149C29.6441 17.7192 29.6245 17.3207 29.5231 16.9534C29.4214 16.5784 29.2301 16.2775 28.9486 16.0509C28.6673 15.8243 28.2924 15.7032 27.8236 15.6876C27.2844 15.6719 26.8312 15.7853 26.4639 16.0275C26.0969 16.2697 25.796 16.5901 25.5615 16.9886C25.3272 17.3871 25.1474 17.8208 25.0225 18.2896C24.8973 18.7506 24.8077 19.196 24.7528 19.6258L24.706 20.0946C24.6669 20.5088 24.6787 20.9229 24.7412 21.3371C24.8036 21.7434 24.9247 22.1106 25.1045 22.4388C25.292 22.767 25.5459 23.0327 25.8662 23.2358C26.1944 23.439 26.6047 23.5484 27.0969 23.564C27.722 23.5796 28.2962 23.4585 28.8198 23.2007C29.3511 22.935 29.8278 22.5834 30.2495 22.1458L31.7262 23.9274C31.3747 24.4587 30.9254 24.8963 30.3785 25.2402C29.8393 25.5761 29.2574 25.8223 28.6323 25.9784C28.007 26.1427 27.3861 26.2208 26.7687 26.2129ZM37.938 23.3765L42.2158 13.2965H45.7554L39.6139 25.9784H37.4692L37.938 23.3765ZM37.6215 13.2965L38.7819 23.6929L38.4772 25.9784H36.4378L34.2579 13.2965H37.6215ZM46.9038 9.08872L47.6188 7.27197C48.4549 7.55328 49.1425 7.95179 49.6815 8.46751C50.2284 8.98322 50.6151 9.60053 50.8417 10.3194C51.0762 11.0383 51.1426 11.8353 51.0409 12.7105L50.7247 15.125C50.67 15.5626 50.6739 15.9572 50.7364 16.3088C50.7988 16.6604 50.9513 16.9456 51.1934 17.1644C51.4435 17.3832 51.8067 17.5082 52.2834 17.5395L52.1544 19.2976C51.3107 19.2664 50.541 19.0945 49.8457 18.7819C49.1502 18.4693 48.6112 18.0122 48.2283 17.4105C47.8454 16.8011 47.697 16.0314 47.7828 15.1015L48.0993 12.6987C48.154 12.2377 48.1775 11.7728 48.1696 11.304C48.1619 10.8273 48.0641 10.3936 47.8766 10.0029C47.697 9.61225 47.3726 9.3075 46.9038 9.08872ZM44.3722 30.2565L43.8685 28.3695C44.3919 28.1743 44.8138 27.889 45.1342 27.514C45.4545 27.1466 45.7005 26.7249 45.8724 26.2482C46.0443 25.7715 46.1695 25.2752 46.2476 24.7596L46.5639 22.3685C46.689 21.3527 47.0132 20.54 47.5368 19.9305C48.0681 19.3132 48.7361 18.8678 49.541 18.5944C50.3456 18.3209 51.2208 18.1724 52.1661 18.149L52.0371 19.8954C51.2793 19.9266 50.7012 20.1728 50.3027 20.6338C49.9121 21.087 49.658 21.6652 49.541 22.3685L49.2128 24.7596C49.0876 25.7363 48.8219 26.5841 48.4158 27.303C48.0094 28.0218 47.4663 28.6237 46.7866 29.108C46.1148 29.6003 45.3099 29.9832 44.3722 30.2565ZM67.8945 13.2965H70.9536V25.5567C70.9536 26.7131 70.6956 27.6938 70.1799 28.4985C69.6721 29.3111 68.9612 29.9245 68.047 30.3388C67.1328 30.7606 66.0702 30.9716 64.8591 30.9716C64.3278 30.9716 63.7651 30.9013 63.1714 30.7606C62.5855 30.6201 62.0227 30.4011 61.4838 30.1043C60.9524 29.8074 60.507 29.4322 60.1476 28.979L61.636 26.9865C62.0268 27.4396 62.48 27.7914 62.9954 28.0415C63.5112 28.2992 64.0816 28.4282 64.7066 28.4282C65.3161 28.4282 65.8318 28.3148 66.2538 28.0882C66.6758 27.8696 66.9999 27.5451 67.2265 27.1155C67.4531 26.6934 67.5665 26.1818 67.5665 25.5799V16.2267L67.8945 13.2965ZM59.3623 19.7899V19.5438C59.3623 18.5748 59.4796 17.6958 59.7138 16.9066C59.9562 16.1095 60.296 15.4258 60.7335 14.8554C61.179 14.285 61.718 13.8435 62.351 13.5309C62.9839 13.2184 63.6987 13.0621 64.4956 13.0621C65.3396 13.0621 66.0467 13.2184 66.6171 13.5309C67.1874 13.8435 67.6562 14.2889 68.0235 14.8671C68.3908 15.4375 68.6759 16.1134 68.879 16.8948C69.09 17.6684 69.2542 18.5162 69.3712 19.4383V19.9774C69.2542 20.8604 69.0782 21.6809 68.844 22.4388C68.6095 23.1968 68.3009 23.861 67.918 24.4314C67.5351 24.9939 67.0584 25.4315 66.4881 25.7442C65.9256 26.0566 65.2535 26.2129 64.4724 26.2129C63.691 26.2129 62.9839 26.0528 62.351 25.7324C61.7259 25.4121 61.1908 24.9627 60.7453 24.3844C60.3001 23.8063 59.9562 23.1264 59.7138 22.3451C59.4796 21.5637 59.3623 20.7119 59.3623 19.7899ZM62.7377 19.5438V19.7899C62.7377 20.3134 62.7885 20.8018 62.8902 21.255C62.9916 21.7082 63.1479 22.1106 63.3589 22.4623C63.5776 22.8061 63.8473 23.0757 64.1676 23.271C64.4956 23.4585 64.8826 23.5523 65.3279 23.5523C65.9452 23.5523 66.449 23.4234 66.8398 23.1655C67.2304 22.8998 67.5233 22.5365 67.7188 22.0755C67.9142 21.6145 68.0273 21.0831 68.0587 20.4814V18.946C68.0429 18.4537 67.9765 18.0122 67.8595 17.6215C67.7422 17.223 67.578 16.8831 67.3673 16.6018C67.1563 16.3205 66.8827 16.1017 66.5468 15.9454C66.2109 15.7892 65.8124 15.711 65.3513 15.711C64.9059 15.711 64.5191 15.8126 64.1909 16.0158C63.8706 16.2111 63.6011 16.4807 63.3824 16.8245C63.1714 17.1683 63.0113 17.5747 62.9017 18.0435C62.7924 18.5045 62.7377 19.0046 62.7377 19.5438ZM73.0398 19.7665V19.5203C73.0398 18.5904 73.1726 17.7348 73.4383 16.9534C73.7039 16.1642 74.0907 15.4805 74.5985 14.9023C75.1063 14.3241 75.7313 13.8748 76.4736 13.5544C77.216 13.2262 78.0676 13.0621 79.0285 13.0621C79.9897 13.0621 80.8452 13.2262 81.5954 13.5544C82.3454 13.8748 82.9745 14.3241 83.4824 14.9023C83.9981 15.4805 84.3887 16.1642 84.6543 16.9534C84.92 17.7348 85.0528 18.5904 85.0528 19.5203V19.7665C85.0528 20.6885 84.92 21.5441 84.6543 22.3333C84.3887 23.1147 83.9981 23.7984 83.4824 24.3844C82.9745 24.9627 82.3492 25.4121 81.6072 25.7324C80.8649 26.0528 80.0133 26.2129 79.052 26.2129C78.0911 26.2129 77.2354 26.0528 76.4854 25.7324C75.7431 25.4121 75.1142 24.9627 74.5985 24.3844C74.0907 23.7984 73.7039 23.1147 73.4383 22.3333C73.1726 21.5441 73.0398 20.6885 73.0398 19.7665ZM76.4151 19.5203V19.7665C76.4151 20.2978 76.4619 20.794 76.5556 21.255C76.6494 21.716 76.798 22.1223 77.0011 22.474C77.2121 22.8178 77.4854 23.0874 77.8216 23.2827C78.1575 23.4781 78.5677 23.5757 79.052 23.5757C79.521 23.5757 79.9233 23.4781 80.2592 23.2827C80.5951 23.0874 80.8649 22.8178 81.068 22.474C81.271 22.1223 81.4194 21.716 81.5134 21.255C81.6149 20.794 81.6657 20.2978 81.6657 19.7665V19.5203C81.6657 19.0046 81.6149 18.5201 81.5134 18.0669C81.4194 17.6059 81.2672 17.1996 81.0562 16.848C80.8531 16.4885 80.5836 16.2072 80.2475 16.004C79.9116 15.8009 79.5052 15.6993 79.0285 15.6993C78.5521 15.6993 78.1457 15.8009 77.8098 16.004C77.4816 16.2072 77.2121 16.4885 77.0011 16.848C76.798 17.1996 76.6494 17.6059 76.5556 18.0669C76.4619 18.5201 76.4151 19.0046 76.4151 19.5203Z" fill="white"/>
<path d="M55.5904 27.2753C56.3062 27.2753 56.8865 26.695 56.8865 25.9791C56.8865 25.2632 56.3062 24.6829 55.5904 24.6829C54.8746 24.6829 54.2943 25.2632 54.2943 25.9791C54.2943 26.695 54.8746 27.2753 55.5904 27.2753Z" fill="#3CFA60" stroke="black" stroke-width="0.560832"/>
</g>
<defs>
<clipPath id="clip0_6_465">
<rect width="86.506" height="31.6986" fill="white" transform="translate(0 0.150635)"/>
</clipPath>
</defs>
</svg>
